<?xml version="1.0" encoding="UTF-8"?>
<svg id="Layer_1" data-name="Layer 1" xmlns="http://www.w3.org/2000/svg" viewBox="0 0 1970 800">
  <defs>
    <style>
      .cls-1, .cls-2 {
        stroke-width: 0px;
      }

      .cls-2 {
        fill: #fff;
      }
    </style>
  </defs>
  <rect class="cls-2" width="1970" height="800"/>
  <polygon class="cls-1" points="537.44 134.29 931.25 134.29 1054.29 435 1181.21 134.29 1273.15 134.29 1273.15 518.11 1212.77 518.11 1212.77 177.18 1084.48 518.11 1030.28 514.84 893.75 181.75 893.06 363.97 834.06 401.2 837.49 179.79 749.67 181.75 744.87 472.39 686.55 507.66 684.49 183.71 537.44 185.67 537.44 134.29"/>
  <path class="cls-1" d="M195,572.15h29.49l65.13,81.85,65.13-81.85h29.49l-83.57,101.87h-22.12l-83.57-101.87Z"/>
  <path class="cls-1" d="M428.94,572.74h135.18v11.19h-106.92v31.21h99.54v11.19h-99.54v35.92h113.06v11.19h-141.32v-100.69Z"/>
  <path class="cls-1" d="M627.23,572.74h30.72l98.31,79.5v-79.5h28.27v100.69h-30.72l-98.31-79.5v79.5h-28.26v-100.69Z"/>
  <path class="cls-1" d="M834.13,572.74h168.36v11.19h-70.05v89.51h-28.27v-89.51h-70.05v-11.19Z"/>
  <path class="cls-1" d="M1052.09,572.74h28.27v70.66c0,5.5,3.69,10.01,11.06,13.54,9.01,4.33,22.12,6.48,39.33,6.48s30.3-2.15,39.33-6.48c7.37-3.53,11.06-8.04,11.06-13.54v-70.66h28.26v71.25c0,8.64-5.74,15.71-17.2,21.2-13.12,6.28-33.6,9.42-61.45,9.42s-48.35-3.14-61.45-9.42c-11.48-5.49-17.21-12.56-17.21-21.2v-71.25Z"/>
  <path class="cls-1" d="M1276.2,572.15h103.23c16.38,0,29.9,2.56,40.55,7.66,10.64,5.11,15.98,12.17,15.98,21.2s-5.34,16.1-15.98,21.2c-5.74,2.75-13.94,4.52-24.58,5.3l47.93,45.34h-30.72l-44.24-43.58h-63.9v43.58h-28.26v-100.69ZM1304.46,583.34v34.74h72.51c8.18,0,15.15-1.37,20.89-4.12,5.72-2.74,8.6-7.07,8.6-12.96,0-5.49-3.28-9.81-9.83-12.96-6.57-3.14-14.34-4.71-23.35-4.71h-68.82Z"/>
  <path class="cls-1" d="M1486.78,572.74h135.18v11.19h-106.92v31.21h99.54v11.19h-99.54v35.92h113.06v11.19h-141.33v-100.69Z"/>
  <path class="cls-1" d="M1703.51,579.81c11.46-5.49,29.07-8.24,52.84-8.24,25.38,0,44.64,3.15,57.76,9.42,11.46,5.5,17.21,11.98,17.21,19.43h-28.27c0-4.71-3.28-8.63-9.83-11.78-7.37-3.53-18.86-5.3-34.41-5.3-17.21,0-29.09,1.57-35.64,4.71-5.74,2.75-8.6,5.89-8.6,9.42s1.63,6.09,4.92,7.66c4.09,1.97,11.46,3.93,22.12,5.89,18.84,3.93,40.13,8.45,63.9,13.54,6.55,1.18,12.69,3.15,18.43,5.89,9.01,4.32,13.52,9.42,13.52,15.31,0,7.86-5.74,14.53-17.21,20.02-12.29,5.89-32.37,8.83-60.22,8.83s-47.93-3.53-62.67-10.6c-10.66-5.1-15.98-12.56-15.98-22.38h28.26c0,7.07,3.26,12.17,9.83,15.31,9,4.33,22.93,6.48,41.78,6.48,17.21,0,29.9-1.96,38.1-5.89,6.55-3.14,9.83-6.27,9.83-9.42,0-3.53-2.46-6.48-7.37-8.83-4.11-1.96-10.66-3.92-19.66-5.89-8.2-1.96-18.86-4.32-31.95-7.07-14.75-3.14-26.63-5.69-35.64-7.65-6.57-1.18-12.29-2.94-17.21-5.3-7.37-3.53-11.06-8.24-11.06-14.13,0-7.45,5.72-13.93,17.2-19.43Z"/>
</svg>