<svg id="Layer_1" data-name="Layer 1" xmlns="http://www.w3.org/2000/svg" viewBox="0 0 128 128">
  <title>BEER</title>
  <path d="M71.177,46.635V15.855H57.136V46.6a7.036,7.036,0,0,1-4.388,6.519l-5.994,2.435a7.036,7.036,0,0,0-4.388,6.519v49.394A7.036,7.036,0,0,0,49.4,118.5H78.6a7.036,7.036,0,0,0,7.036-7.036V62.031a7.036,7.036,0,0,0-4.339-6.5l-5.779-2.4A7.036,7.036,0,0,1,71.177,46.635Z" style="fill:#532b47" />
  <path d="M77.467,111.464V62.031a7.036,7.036,0,0,0-4.339-6.5l-5.779-2.4a7.036,7.036,0,0,1-4.339-6.5V15.855H57.136V46.6a7.036,7.036,0,0,1-4.388,6.519l-5.994,2.435a7.036,7.036,0,0,0-4.388,6.519v49.394A7.036,7.036,0,0,0,49.4,118.5H70.431A7.036,7.036,0,0,0,77.467,111.464Z" style="fill:#672d53" />
  <rect x="42.366" y="70.5" width="43.268" height="31.146" style="fill:#f6c6bb" />
  <rect x="42.366" y="70.5" width="35.101" height="31.146" style="fill:#feded6" />
  <path d="M73.746,14.37a6.026,6.026,0,0,0-3.8.531,7.2,7.2,0,0,0-14.006.289,4.992,4.992,0,0,0-3.193.217,5.446,5.446,0,0,0-3.436,4.868,5.336,5.336,0,0,0,10.025,2.631,7.172,7.172,0,0,0,5.576.735A1.39,1.39,0,0,1,66.644,25V37.97a2.332,2.332,0,0,0,2.044,2.353,2.267,2.267,0,0,0,2.489-2.256v-10.3a1.4,1.4,0,0,1,1.44-1.381h.015A6.058,6.058,0,0,0,73.746,14.37Z" style="fill:#f9d12f" />
  <ellipse cx="64" cy="86.073" rx="12.083" ry="15.573" style="fill:#fd852b" />
  <path d="M64.912,23.641A1.39,1.39,0,0,1,66.644,25V37.97a2.332,2.332,0,0,0,2.044,2.353,2.267,2.267,0,0,0,2.489-2.256v-10.3a1.4,1.4,0,0,1,1.44-1.381h.015A6.057,6.057,0,1,0,69.947,14.9a7.2,7.2,0,0,0-14.006.289q.037-.066.074-.13a3.759,3.759,0,0,1,6.966,1.973V23.9A7.168,7.168,0,0,0,64.912,23.641Z" style="fill:#f8b62b" />
</svg>