<svg xmlns="http://www.w3.org/2000/svg" viewBox="0 0 128 128">
  <title>43.1</title>
  <g id="champagne">
    <path d="M96.055,122.543,64.277,90.766A67.927,67.927,0,0,1,50.333,70.585,64.055,64.055,0,0,0,37.209,51.592L30.8,45.185a4.765,4.765,0,0,1-5.325-.968l-1.527-1.528a4.753,4.753,0,0,1-.969-5.324L20.84,35.222a5.212,5.212,0,0,1,0-7.368l7.212-7.212a5.212,5.212,0,0,1,7.368,0l2.171,2.171A4.776,4.776,0,0,1,42.8,23.838l1.527,1.527a4.8,4.8,0,0,1,1.025,5.212l6.308,6.307a64.087,64.087,0,0,0,19,13.131,67.908,67.908,0,0,1,20.18,13.944l31.9,31.9a7.363,7.363,0,0,1,.007,10.4L106.456,122.55A7.363,7.363,0,0,1,96.055,122.543ZM34.515,25.394,32.592,23.47a1.208,1.208,0,0,0-1.711,0l-7.213,7.213a1.209,1.209,0,0,0,0,1.711l1.924,1.923ZM41.5,29.269a.766.766,0,0,0,0-1.075l-1.527-1.528a.76.76,0,0,0-1.075,0L26.78,38.786a.76.76,0,0,0,0,1.075l1.527,1.527a.766.766,0,0,0,1.075,0Zm27.52,24.4A67.929,67.929,0,0,1,48.834,39.712l-6.06-6.059-8.923,8.923,6.187,6.187A68.144,68.144,0,0,1,53.982,68.944c.714,1.577,1.485,3.126,2.326,4.646l11.455-3.465-1.831-1.9a2,2,0,0,1,2.857-2.8l1.661,1.732L73.8,56.061Q71.461,54.767,69.022,53.664Zm8.309,4.518L73.746,70.069a5.175,5.175,0,0,1-3.479,3.479L58.416,77.125c.261.418,2.368,3.487,3.21,4.568l14.941-4.518a1.21,1.21,0,0,0,.806-.806L81.9,61.407C80.428,60.261,78.9,59.186,77.331,58.182ZM119.92,103.43a3.359,3.359,0,0,0-.007-4.745S86.184,65.013,85.236,64.178c0,0-4.179,13.768-4.264,13.966l4.186,4.44c1.19-.409,3.818-1.585,6.591,1.188A5.872,5.872,0,1,1,82.3,85.4l-4.243-4.512L64.384,85.031c.876,1,34.5,34.684,34.5,34.684a3.359,3.359,0,0,0,4.745.007ZM85.731,87.923a1.828,1.828,0,0,0,.545,1.322,1.87,1.87,0,1,0-.545-1.322Z" fill="white" />
    <path d="M13.389,10.025a2,2,0,0,0-2.86,2.8l7.31,7.659a2,2,0,1,0,2.894-2.761l-7.31-7.66Z" fill="white"/>
    <path d="M27.877,3.3a2.031,2.031,0,0,0-2.046,1.953l-.248,10.61a2,2,0,1,0,4,.093l.248-10.61A2.112,2.112,0,0,0,27.877,3.3Z" fill="white"/>
    <path d="M15.76,25.238,5.152,24.991a2,2,0,0,0-.094,4l10.609.248a1.965,1.965,0,0,0,2.046-1.952A2.179,2.179,0,0,0,15.76,25.238Z" fill="white" />
  </g>
</svg>