<svg xmlns="http://www.w3.org/2000/svg" viewBox="0 0 128 128">
  <title>43.1</title>
  <g id="confetti">
    <path d="M123.214,5.239a2,2,0,0,0-4,0c0,14.061-25.8,26.4-55.214,26.4S8.786,19.3,8.786,5.239a2,2,0,1,0-4,0,17.244,17.244,0,0,0,2.623,8.95l-.089-.051v22.93a4.86,4.86,0,0,0,2.5,4.33,6.739,6.739,0,0,0,5,0L28.4,33.556s-2.189,3.087-1.656,5.862l.381,10.233a5.311,5.311,0,0,1-.627,2.684l-2.983,5.556a5.646,5.646,0,0,0,3.792,8.192s3.358.677,3.748.677a5.677,5.677,0,0,0,4.986-2.974l3.981-7.414a9.3,9.3,0,0,0,1.1-4.718l-.38-10.233a5.312,5.312,0,0,1,.539-2.511l2.5-5.1c1.375.258,4.238.781,4.264.826L59.67,54.756a5,5,0,0,0,8.66,0L79.948,34.635c.026-.045,2.889-.568,4.264-.826l2.5,5.1a5.3,5.3,0,0,1,.539,2.5l-.38,10.246a9.294,9.294,0,0,0,1.1,4.712l3.98,7.413a5.678,5.678,0,0,0,4.987,2.975c.389,0,3.748-.677,3.748-.677a5.647,5.647,0,0,0,3.792-8.193L101.5,52.335a5.31,5.31,0,0,1-.627-2.683l.381-11.241a10.966,10.966,0,0,0-1.767-5.919L113.18,40.4c.783.452,2.391,1.173,5,0a4.619,4.619,0,0,0,2.5-4.33V14.029A17.186,17.186,0,0,0,123.214,5.239ZM12.82,37.934a.948.948,0,0,1-1.5-.866v-16a77.018,77.018,0,0,0,7.126,4.7c3.356,1.887,8.234,4.165,8.234,4.165Zm24.873-.786a9.349,9.349,0,0,0-.945,4.415l.38,10.234a5.3,5.3,0,0,1-.626,2.682L32.52,61.894a1.649,1.649,0,0,1-1.8.83l-2.578-.552a1.553,1.553,0,0,1-1.106-2.389l2.983-5.555a9.308,9.308,0,0,0,1.1-4.718l-.381-10.233a5.31,5.31,0,0,1,.539-2.511L33.915,31.4q2.82.858,5.834,1.554ZM64.865,52.757a.918.918,0,0,1-1.73,0L52.937,35.1c3.586.349,7.281.54,11.063.54s7.477-.191,11.063-.54Zm36.094,7.025a1.7,1.7,0,0,1-1.106,2.39l-2.579.552a1.656,1.656,0,0,1-1.8-.831L91.5,54.479a5.29,5.29,0,0,1-.626-2.676l.38-10.248a9.338,9.338,0,0,0-.945-4.407l-2.056-4.19c2.083-.482,4.1-1.02,6.052-1.618l2.413,4.426a5.308,5.308,0,0,1,.539,2.51l-.381,11.242a9.3,9.3,0,0,0,1.1,4.71ZM116.68,36.068a.957.957,0,0,1-1.5.866l-13.86-8a90.038,90.038,0,0,0,8.385-4.022,62.256,62.256,0,0,0,6.975-4.846Z" fill="white"/>
    <path d="M123.214,65.239a2,2,0,0,0-4,0c0,14.061-25.8,26.4-55.214,26.4S8.786,79.3,8.786,65.239a2,2,0,1,0-4,0,17.244,17.244,0,0,0,2.623,8.95l-.089-.051v22.93a4.86,4.86,0,0,0,2.5,4.33,6.739,6.739,0,0,0,5,0L28.4,93.556s-2.189,3.087-1.656,5.862l.381,10.233a5.311,5.311,0,0,1-.627,2.684l-2.983,5.556a5.646,5.646,0,0,0,3.792,8.192s3.358.677,3.748.677a5.677,5.677,0,0,0,4.986-2.974l3.981-7.414a9.3,9.3,0,0,0,1.1-4.718l-.38-10.233a5.31,5.31,0,0,1,.539-2.511l2.5-5.1c1.375.258,4.238.781,4.264.826L59.67,114.756a5,5,0,0,0,8.66,0L79.948,94.635c.026-.045,2.889-.568,4.264-.826l2.5,5.1a5.3,5.3,0,0,1,.539,2.5l-.38,10.246a9.294,9.294,0,0,0,1.1,4.712l3.98,7.413a5.678,5.678,0,0,0,4.987,2.975c.389,0,3.748-.677,3.748-.677a5.647,5.647,0,0,0,3.792-8.193l-2.983-5.555a5.31,5.31,0,0,1-.627-2.683l.381-11.241a10.966,10.966,0,0,0-1.767-5.919L113.18,100.4c.783.452,2.391,1.173,5,0a4.619,4.619,0,0,0,2.5-4.33V74.029A17.186,17.186,0,0,0,123.214,65.239ZM12.82,97.934a.948.948,0,0,1-1.5-.866v-16a77.018,77.018,0,0,0,7.126,4.7c3.356,1.887,8.234,4.165,8.234,4.165Zm24.873-.786a9.347,9.347,0,0,0-.945,4.414l.38,10.235a5.3,5.3,0,0,1-.626,2.682l-3.982,7.415a1.649,1.649,0,0,1-1.8.83l-2.578-.552a1.553,1.553,0,0,1-1.106-2.389l2.983-5.556a9.3,9.3,0,0,0,1.1-4.717l-.381-10.233a5.31,5.31,0,0,1,.539-2.511L33.915,91.4q2.82.858,5.834,1.554Zm27.172,15.609a.918.918,0,0,1-1.73,0L52.937,95.1c3.586.349,7.281.54,11.063.54s7.477-.191,11.063-.54Zm36.094,7.025a1.7,1.7,0,0,1-1.106,2.39l-2.579.552a1.656,1.656,0,0,1-1.8-.831L91.5,114.479a5.29,5.29,0,0,1-.626-2.676l.38-10.248a9.338,9.338,0,0,0-.945-4.407l-2.056-4.19c2.083-.482,4.1-1.02,6.052-1.618l2.413,4.426a5.308,5.308,0,0,1,.539,2.51l-.381,11.242a9.291,9.291,0,0,0,1.1,4.709ZM116.68,96.068a.957.957,0,0,1-1.5.866l-13.86-8a90.038,90.038,0,0,0,8.385-4.022,62.256,62.256,0,0,0,6.975-4.846Z " fill="white" />
  </g>
</svg>