<svg xmlns="http://www.w3.org/2000/svg" viewBox="0 0 128 128">
  <title>43.1</title>
  <g id="mirror">
    <path d="M71.68,29.41V28.02A7.888,7.888,0,0,0,65.8,20.4V4.52a2,2,0,1,0-4,0V20.4a7.89,7.89,0,0,0-5.87,7.62v1.46a42.3,42.3,0,1,0,15.75-.07ZM99.35,56.29a111.833,111.833,0,0,0-17.43-3.21,111.833,111.833,0,0,0-3.21-17.43A38.489,38.489,0,0,1,99.35,56.29ZM63.8,24.14c4.521,0,3.88,4.73,3.88,4.73-1.21-.11-2.44-.16-3.68-.16-1.37,0-2.73.07-4.07.2C59.93,28.91,59.161,24.14,63.8,24.14Zm.2,8.57a38.152,38.152,0,0,1,10.09,1.35,103.816,103.816,0,0,1,3.78,18.61c-4.46-.37-9.11-.56-13.87-.56s-9.41.19-13.87.56a103.816,103.816,0,0,1,3.78-18.61A38.152,38.152,0,0,1,64,32.71ZM49.29,35.65a111.833,111.833,0,0,0-3.21,17.43,111.833,111.833,0,0,0-17.43,3.21A38.489,38.489,0,0,1,49.29,35.65ZM25.71,71a38.152,38.152,0,0,1,1.35-10.09,103.816,103.816,0,0,1,18.61-3.78c-.37,4.46-.56,9.11-.56,13.87s.19,9.41.56,13.87a103.816,103.816,0,0,1-18.61-3.78A38.152,38.152,0,0,1,25.71,71Zm2.94,14.71a111.833,111.833,0,0,0,17.43,3.21,111.833,111.833,0,0,0,3.21,17.43A38.489,38.489,0,0,1,28.65,85.71Zm45.44,22.23a38.382,38.382,0,0,1-20.18,0,103.816,103.816,0,0,1-3.78-18.61c4.46.37,9.11.56,13.87.56s9.41-.19,13.87-.56A103.816,103.816,0,0,1,74.09,107.94ZM64,85.89c-4.9,0-9.69-.21-14.27-.62-.41-4.57-.62-9.36-.62-14.27s.21-9.7.62-14.27c4.58-.41,9.37-.62,14.27-.62s9.69.21,14.27.62c.41,4.57.62,9.36.62,14.27s-.21,9.7-.62,14.27C73.69,85.68,68.9,85.89,64,85.89Zm14.71,20.46a111.833,111.833,0,0,0,3.21-17.43,111.833,111.833,0,0,0,17.43-3.21A38.489,38.489,0,0,1,78.71,106.35Zm3.62-21.48c.37-4.46.56-9.11.56-13.87s-.19-9.41-.56-13.87a103.816,103.816,0,0,1,18.61,3.78,38.382,38.382,0,0,1,0,20.18A103.816,103.816,0,0,1,82.33,84.87Z" fill="white" />
    <path d="M21.82,31.87a1.991,1.991,0,0,1-1.96,2.03l-2.93.06.06,2.93a2,2,0,0,1-1.96,2.04h-.04a2.011,2.011,0,0,1-2-1.96l-.06-2.94-2.92.06c-.01.01-.02.01-.04.01a2,2,0,0,1-.04-4l2.93-.06-.06-2.93a2,2,0,0,1,4-.08l.06,2.94,2.93-.06A1.972,1.972,0,0,1,21.82,31.87Z" fill="white" />
    <path d="M120.03,31.77a2,2,0,0,1-1.96,2.04l-2.93.06.06,2.92a2,2,0,0,1-1.96,2.04h-.04a2,2,0,0,1-2-1.96l-.06-2.93-2.93.06h-.04a2,2,0,0,1-.03-4l2.93-.06-.06-2.92a2,2,0,0,1,4-.08l.06,2.93,2.92-.06A1.988,1.988,0,0,1,120.03,31.77Z" fill="white"/>
    <path d="M21.82,109.87a1.991,1.991,0,0,1-1.96,2.03l-2.93.06.06,2.93a2,2,0,0,1-1.96,2.04h-.04a2.011,2.011,0,0,1-2-1.96l-.06-2.94-2.92.06c-.01.01-.02.01-.04.01a2,2,0,0,1-.04-4l2.93-.06-.06-2.93a2.013,2.013,0,0,1,1.96-2.04,1.987,1.987,0,0,1,2.04,1.96l.06,2.94,2.93-.06A1.966,1.966,0,0,1,21.82,109.87Z" fill="white" />
    <path d="M120.03,109.77a2,2,0,0,1-1.96,2.04l-2.93.06.06,2.92a2,2,0,0,1-1.96,2.04h-.04a2,2,0,0,1-2-1.96l-.06-2.93-2.93.06h-.04a2,2,0,0,1-.03-4l2.93-.06-.06-2.92a2,2,0,1,1,4-.08l.06,2.93,2.92-.06A1.981,1.981,0,0,1,120.03,109.77Z" fill="white" />
  </g>
</svg>