<svg xmlns="http://www.w3.org/2000/svg" width="128" height="128" viewBox="0 0 128 128">
  <title>DRINK</title>
  <g>
    <circle cx="29.786" cy="25.118" r="18.811" fill="#97da7b"/>
    <path d="M77.879,73.514l39.146-48.4H29.786l39.145,48.4v37.653a4,4,0,0,1-2.415,3.673l-15.885,6.853H96.18L80.3,114.84a4,4,0,0,1-2.416-3.673Z" fill="#eaf6ff"/>
    <path d="M96.57,39.276,73.405,67.915,50.241,39.276s4.287-2.786,13.816-2.786C77.8,36.49,80.846,44.247,96.57,39.276Z" fill="#97da7b"/>
    <g>
      <path d="M96.873,120.086l-15.885-6.853a2.249,2.249,0,0,1-1.359-2.066v-7.006a1.75,1.75,0,0,0-3.5,0v7.006a5.747,5.747,0,0,0,3.473,5.28l8.1,3.5h-28.6l8.1-3.5a5.745,5.745,0,0,0,3.473-5.28V73.514a1.748,1.748,0,0,0-.389-1.1L42.976,38.642h0L33.452,26.868H54.281a1.75,1.75,0,0,0,0-3.5H50.258A20.556,20.556,0,1,0,27.466,45.551a21.387,21.387,0,0,0,2.324.127,20.429,20.429,0,0,0,11.52-3.53L67.181,74.133v37.034a2.247,2.247,0,0,1-1.359,2.066l-15.885,6.853a1.75,1.75,0,0,0,.693,3.357H96.18a1.75,1.75,0,0,0,.693-3.357ZM27.848,42.071a17.062,17.062,0,1,1,18.909-18.7H29.786a1.75,1.75,0,0,0-1.361,2.85L39.1,39.413A17.03,17.03,0,0,1,27.848,42.071Z"/>
      <path d="M63.52,26.868h4.5a1.75,1.75,0,0,0,0-3.5h-4.5a1.75,1.75,0,0,0,0,3.5Z"/>
      <path d="M118.6,24.364a1.75,1.75,0,0,0-1.579-1H77.674a1.75,1.75,0,0,0,0,3.5h35.684L76.519,72.414a1.749,1.749,0,0,0-.39,1.1V94.8a1.75,1.75,0,0,0,3.5,0V74.133l38.757-47.915A1.75,1.75,0,0,0,118.6,24.364Z"/>
      <path d="M49.287,37.809a1.75,1.75,0,0,0-.407,2.568L72.044,69.015a1.75,1.75,0,0,0,2.722,0L97.931,40.377a1.751,1.751,0,0,0-1.889-2.77c-8.894,2.811-13.384,1.34-18.582-.366a39.643,39.643,0,0,0-13.4-2.5C54.124,34.74,49.48,37.683,49.287,37.809ZM91.92,42.242,73.405,65.132,53.016,39.924A32.06,32.06,0,0,1,64.057,38.24a36.181,36.181,0,0,1,12.312,2.327C80.856,42.039,85.142,43.446,91.92,42.242Z"/>
      <path d="M29.786,19.825a1.75,1.75,0,0,0,1.75-1.75V13.35a1.75,1.75,0,0,0-3.5,0v4.725A1.75,1.75,0,0,0,29.786,19.825Z"/>
      <path d="M28.036,36.886a1.75,1.75,0,0,0,3.5,0V32.16a1.75,1.75,0,0,0-3.5,0Z"/>
      <path d="M24.494,25.118a1.75,1.75,0,0,0-1.75-1.75H18.018a1.75,1.75,0,0,0,0,3.5h4.726A1.751,1.751,0,0,0,24.494,25.118Z"/>
      <path d="M34.766,21.888A1.745,1.745,0,0,0,36,21.375l3.342-3.341a1.75,1.75,0,1,0-2.475-2.475L33.528,18.9a1.751,1.751,0,0,0,1.238,2.988Z"/>
      <path d="M23.569,28.86,20.227,32.2A1.75,1.75,0,1,0,22.7,34.676l3.341-3.342a1.749,1.749,0,0,0-2.474-2.474Z"/>
      <path d="M22.7,15.559a1.75,1.75,0,1,0-2.475,2.475l3.342,3.341A1.75,1.75,0,0,0,26.043,18.9Z"/>
    </g>
  </g>
</svg>
