<svg id="Layer_1" data-name="Layer 1" xmlns="http://www.w3.org/2000/svg" viewBox="0 0 128 128">
  <title>FIREWORKS</title>
  <path d="M60.789,115.335a1.75,1.75,0,0,1-1.049-3.152c.321-.245,7.936-6.2,1.805-15.76-4.689-7.313-1.855-12.932.3-14.881a1.75,1.75,0,0,1,2.36,2.584c-.185.176-3.915,3.855.287,10.408,7.914,12.343-2.55,20.373-2.657,20.452A1.741,1.741,0,0,1,60.789,115.335Z" style="fill:#feded6" />
  <rect x="26.253" y="18.314" width="6.542" height="6.542" transform="translate(-6.616 27.198) rotate(-45)" style="fill:#fd748c" />
  <rect x="98.136" y="88.633" width="6.542" height="6.542" transform="translate(-35.284 98.624) rotate(-45)" style="fill:#fd748c" />
  <polygon points="81.618 33.92 44.419 33.92 63.018 9.25 81.618 33.92" style="fill:#fd748c" />
  <rect x="47.601" y="33.92" width="30.834" height="48.92" style="fill:#f9d12f" />
  <path d="M76.685,106.9a1.75,1.75,0,0,1-1.75-1.75V82.84a1.75,1.75,0,1,1,3.5,0v22.315A1.75,1.75,0,0,1,76.685,106.9Z" style="fill:#feded6" />
  <polygon points="78.436 44.676 47.601 58.659 47.601 50.054 78.436 36.071 78.436 44.676" style="fill:#2ec3fc" />
  <polygon points="78.436 66.225 47.601 80.208 47.601 71.603 78.436 57.62 78.436 66.225" style="fill:#2ec3fc" />
  <path d="M56.285,106.67a2.413,2.413,0,1,0,2.413,2.413A2.416,2.416,0,0,0,56.285,106.67Z" style="fill:#fd852b" />
  <path d="M56.285,115.675a2.413,2.413,0,1,0,2.413,2.413A2.416,2.416,0,0,0,56.285,115.675Z" style="fill:#fd852b" />
  <path d="M51.783,111.172a2.413,2.413,0,1,0,2.413,2.413A2.416,2.416,0,0,0,51.783,111.172Z" style="fill:#fd852b" />
  <path d="M101.946,32.952a2.413,2.413,0,1,0-2.413-2.413A2.416,2.416,0,0,0,101.946,32.952Z" style="fill:#fd852b" />
  <path d="M101.946,37.132a2.412,2.412,0,1,0,2.413,2.412A2.415,2.415,0,0,0,101.946,37.132Z" style="fill:#fd852b" />
  <path d="M97.444,32.629a2.413,2.413,0,1,0,2.413,2.413A2.416,2.416,0,0,0,97.444,32.629Z" style="fill:#fd852b" />
  <path d="M106.449,32.629a2.413,2.413,0,1,0,2.413,2.413A2.416,2.416,0,0,0,106.449,32.629Z" style="fill:#fd852b" />
  <path d="M26.054,77.154a2.413,2.413,0,1,0-2.413-2.413A2.416,2.416,0,0,0,26.054,77.154Z" style="fill:#fd852b" />
  <path d="M26.054,81.333a2.413,2.413,0,1,0,2.413,2.413A2.416,2.416,0,0,0,26.054,81.333Z" style="fill:#fd852b" />
  <path d="M21.551,76.831a2.413,2.413,0,1,0,2.413,2.413A2.416,2.416,0,0,0,21.551,76.831Z" style="fill:#fd852b" />
  <path d="M30.556,76.831a2.413,2.413,0,1,0,2.413,2.413A2.416,2.416,0,0,0,30.556,76.831Z" style="fill:#fd852b" />
  <rect x="67" y="33.92" width="11.436" height="48.92" style="fill:#f8b62b" />
  <polygon points="81.618 33.92 63.018 9.25 67 33.92 81.618 33.92" style="fill:#ec4d85" />
  <polygon points="67 49.862 78.436 44.676 78.436 36.071 67 41.257 67 49.862" style="fill:#1ba4fc" />
  <polygon points="67 71.411 78.436 66.225 78.436 57.62 67 62.806 67 71.411" style="fill:#1ba4fc" />
</svg>