<svg xmlns="http://www.w3.org/2000/svg" viewBox="0 0 128 128">
  <title>43.1</title>
  <g id="fireworks">
    <path d="M69.2,8.9a19.106,19.106,0,0,0-10.337,7.621c-8.69,12.422,7.4,27.808,8.081,28.455a2,2,0,0,0,2.826-.084,1.964,1.964,0,0,0-.082-2.827c-.146-.141-14.259-13.658-7.547-23.251a15.208,15.208,0,0,1,8.206-6.083A2,2,0,0,0,69.2,8.9Z" fill="white" />
    <path d="M40,63.9c-5.022-5.021-14.265-11.967-23.489-7.009a19.1,19.1,0,0,0-8.778,9.374,2,2,0,1,0,3.672,1.586,15.2,15.2,0,0,1,7-7.437C28.75,54.852,40.5,70.469,40.613,70.627a2,2,0,1,0,3.214-2.382A42.556,42.556,0,0,0,40,63.9Z" fill="white"/>
    <path d="M113.384,122.463,36.9,101.964a7,7,0,0,1-3.139-11.71l56-56a7.048,7.048,0,0,1,6.767-1.817c2.7.66,4.617,3.727,4.949,4.95l20.492,76.5a7,7,0,0,1-8.577,8.577ZM47.1,100.557l5.1,1.365L69.034,85.085a11.306,11.306,0,0,1-1.633-1.35A10.533,10.533,0,0,1,65.86,81.8ZM98.86,43.14,97.6,38.43a3,3,0,0,0-5.021-1.343l-56,56a3.011,3.011,0,0,0-.777,2.9A3.156,3.156,0,0,0,37.929,98.1l4.709,1.259L64.29,77.71A11.177,11.177,0,0,1,77.2,64.8Zm2.56,9.56-1.365-5.1L81.3,66.361A10.532,10.532,0,0,1,83.233,67.9a11.26,11.26,0,0,1,1.351,1.633ZM80.405,70.731a7.2,7.2,0,1,0,.007,10.175A7.205,7.205,0,0,0,80.405,70.731Zm24.706-4.271-2.5-9.3L86.267,73.51A11.188,11.188,0,0,1,73,86.775L56.66,103.117l9.3,2.5Zm2.56,9.56-1.365-5.1L70.42,106.808l5.1,1.364Zm3.691,13.76-2.5-9.3L79.98,109.367l9.3,2.5Zm2.56,9.561-1.365-5.1L93.741,113.058l5.1,1.365Zm4.172,15.584L115.117,103.8,103.3,115.618l11.123,2.977a3,3,0,0,0,3.67-3.67Z" fill="white" />
    <path d="M87.143,22.528a1.95,1.95,0,0,0-1.958-2.044l-2.928-.057.057-2.927a1.907,1.907,0,0,0-1.959-2.029,1.983,1.983,0,0,0-2.043,1.958l-.064,2.921-2.913-.057a2,2,0,0,0-.085,4l2.927.057-.056,2.927a2,2,0,0,0,4.009.078l.057-2.927,2.927.056A1.966,1.966,0,0,0,87.143,22.528Z" fill="white"/>
    <path d="M28.114,80.114a2.056,2.056,0,0,0-1.959-2.043l-2.927-.057.057-2.927a2.125,2.125,0,0,0-1.966-2.037,1.993,1.993,0,0,0-2.037,1.966l-.063,2.92-2.914-.056a2,2,0,0,0-.084,4l2.927.057-.057,2.927a2,2,0,0,0,4,.078l.056-2.928,2.928.057A1.991,1.991,0,0,0,28.114,80.114Z" fill="white"/>
    <path d="M49.379,32.379a3.343,3.343,0,0,0-3.6.306l-3.264,2.436-3.857-1.308a3.425,3.425,0,0,0-4.342,4.344l1.308,3.856-2.436,3.263a3.425,3.425,0,0,0,2.789,5.472l4.071-.052L42.4,54.022a3.425,3.425,0,0,0,6.066-.963l1.208-3.887,3.889-1.209a3.424,3.424,0,0,0,.96-6.066L51.2,39.546l.052-4.072A3.747,3.747,0,0,0,49.379,32.379ZM40.4,38.626l1.122.38a3.423,3.423,0,0,0,3.147-.5l.946-.707a1,1,0,0,1,1.6.814L47.193,39.8a3.435,3.435,0,0,0,1.447,2.84l.964.682a1,1,0,0,1-.28,1.772l-1.9.59a2.107,2.107,0,0,0-1.482,2.013h0l-.351,1.129a1,1,0,0,1-1.772.28l-.682-.965A3.441,3.441,0,0,0,40.3,46.693l-1.184.015a1,1,0,0,1-.814-1.6l.7-.945a3.429,3.429,0,0,0,.5-3.153l-.379-1.118A1,1,0,0,1,40.4,38.626Zm9.367,10.258,0,0Z" fill="white"/>
    <path d="M30.841,27.512l-9.24-9.24A2,2,0,1,0,18.773,21.1l9.24,9.24a2,2,0,0,0,2.828-2.829Z" />
    <path d="M43.934,5.3a1.991,1.991,0,0,0-2,2v13.1a2,2,0,1,0,4,0V7.3A1.916,1.916,0,0,0,43.934,5.3Z" />
    <path d="M20.891,41.433H7.8a2,2,0,0,0,0,4h13.1a2,2,0,0,0,0-4Z" />
  </g>
</svg>