<svg id="Layer_1" data-name="Layer 1" xmlns="http://www.w3.org/2000/svg" viewBox="0 0 128 128"><title>MASK</title><path d="M93.072,84.7a2.445,2.445,0,1,1,2.444-2.445A2.447,2.447,0,0,1,93.072,84.7Z" style="fill:#fd852b"/><path d="M93.072,94.146A2.445,2.445,0,1,1,95.517,91.7,2.448,2.448,0,0,1,93.072,94.146Z" style="fill:#fd852b"/><path d="M88.351,89.424a2.445,2.445,0,1,1,2.444-2.445A2.448,2.448,0,0,1,88.351,89.424Z" style="fill:#fd852b"/><path d="M97.793,89.424a2.445,2.445,0,1,1,2.445-2.445A2.447,2.447,0,0,1,97.793,89.424Z" style="fill:#fd852b"/><path d="M15.285,12.64a2.445,2.445,0,1,1,2.445-2.445A2.447,2.447,0,0,1,15.285,12.64Z" style="fill:#fd852b"/><path d="M15.285,22.083a2.445,2.445,0,1,1,2.445-2.445A2.447,2.447,0,0,1,15.285,22.083Z" style="fill:#fd852b"/><path d="M10.564,17.361a2.445,2.445,0,1,1,2.444-2.445A2.448,2.448,0,0,1,10.564,17.361Z" style="fill:#fd852b"/><path d="M20.007,17.361a2.445,2.445,0,1,1,2.445-2.445A2.447,2.447,0,0,1,20.007,17.361Z" style="fill:#fd852b"/><rect x="110.961" y="17.363" width="5.939" height="5.939" transform="translate(18.992 86.517) rotate(-45)" style="fill:#2ec3fc"/><rect x="38.468" y="103.905" width="5.939" height="5.939" transform="translate(-63.435 60.605) rotate(-45.001)" style="fill:#f9d12f"/><path d="M24.189,120.25a1.75,1.75,0,0,1-1.75-1.75V30.789a1.75,1.75,0,1,1,3.5,0V118.5A1.75,1.75,0,0,1,24.189,120.25Z" style="fill:#feded6"/><path d="M94.643,39.365c-9.327-2.584-16.71-2.429-22.582-.108-1.185-2.6-2.029-7.169,3.86-10.85a17.683,17.683,0,0,0-8.531.009,46.112,46.112,0,0,1,1.156-9.982l-5.98-5.292-5.979,5.292a46.115,46.115,0,0,1,1.155,9.982,17.684,17.684,0,0,0-8.531-.009c5.89,3.681,5.045,8.251,3.861,10.85-5.872-2.321-13.255-2.476-22.582.108-8.066,2.235-13.716-4.932-13.716-4.932,0,43.832,38.861,33.6,38.861,33.6,3.466,3.466,6.932,3.074,6.932,3.074s3.466.392,6.932-3.074c0,0,38.861,10.233,38.861-33.6C108.359,34.434,102.709,41.6,94.643,39.365ZM27.751,48.607a42.053,42.053,0,0,0,13.124-2.674C50,42.646,55.125,54.76,55.125,54.76,37.9,69.158,27.751,48.607,27.751,48.607ZM70.008,54.76s5.121-12.114,14.249-8.828a42.053,42.053,0,0,0,13.124,2.674S87.231,69.158,70.008,54.76Z" style="fill:#fd748c"/><path d="M108.359,34.434a15.758,15.758,0,0,1-8.234,5.114c.608,8.425-.955,28.91-30.627,28.486C69.5,68.033,108.359,78.266,108.359,34.434Z" style="fill:#ec4d85"/><path d="M62.566,13.142V32.75s.589-2.419,4.824-4.334a43.976,43.976,0,0,1,1.156-9.982Z" style="fill:#ec4d85"/><path d="M66.75,43.5c1.25-2.125,5.311-4.243,5.311-4.243-1.185-2.6-2.029-7.169,3.86-10.85C63.593,31.314,66.75,43.5,66.75,43.5Z" style="fill:#ec4d85"/><path d="M27.751,48.607h0a11.749,11.749,0,0,0,7.611,11.041c4.942,1.83,11.912,2.011,19.763-4.887C37.9,69.158,27.751,48.607,27.751,48.607Z" style="fill:#ec4d85"/><path d="M97.249,48.861c-1.232,2.3-11.147,19.352-27.241,5.9h0a12.6,12.6,0,0,0,19.351,4.527A31.434,31.434,0,0,0,97.249,48.861Z" style="fill:#ec4d85"/></svg>