<svg xmlns="http://www.w3.org/2000/svg" viewBox="0 0 128 128"><title>43.1</title><g id="megaphone"><path d="M102.11,32.78V12.09a6.182,6.182,0,0,0-6.17-6.18,6.281,6.281,0,0,0-6.18,7.5L59.59,30.55a8.041,8.041,0,0,1-3.51,1.03L24.64,34.16A12.023,12.023,0,0,0,13.37,46.14V61.4A12,12,0,0,0,24.28,73.35l3.8,40.38a9.215,9.215,0,0,0,18.35,0l3.6-38.27,6.09.5a8.033,8.033,0,0,1,3.47,1.03L89.76,94.13c-.349,4.834,2.49,7.513,6.18,7.5a6.19,6.19,0,0,0,6.17-6.18V74.77a23.863,23.863,0,0,0,0-41.99ZM42.45,113.36a5.218,5.218,0,0,1-10.39,0L28.33,73.69l17.72,1.45ZM89.76,89.53,61.57,73.51a12.106,12.106,0,0,0-5.16-1.54L24.88,69.39a8.018,8.018,0,0,1-7.51-7.99V46.14a8.024,8.024,0,0,1,7.55-7.99l31.45-2.58a12.11,12.11,0,0,0,5.2-1.54L89.76,18.01Zm8.35,5.92a2.175,2.175,0,1,1-4.35,0V12.09a2.175,2.175,0,1,1,4.35,0Zm4-25.37V37.46a19.99,19.99,0,0,1,8.52,16.31A19.7,19.7,0,0,1,102.11,70.08Z"/><path d="M69.775,66.8l-4.583-2.41L60.609,66.8A3.731,3.731,0,0,1,55.2,62.861l.874-5.1-3.708-3.615a3.732,3.732,0,0,1,2.07-6.365l5.122-.744,2.293-4.643a3.706,3.706,0,0,1,3.345-2.08h0a3.707,3.707,0,0,1,3.346,2.081l2.292,4.642,5.122.744a3.732,3.732,0,0,1,2.069,6.365L74.313,57.76l.876,5.1A3.732,3.732,0,0,1,69.775,66.8Zm-4.706-2.475h0Zm.123-3.969a3.742,3.742,0,0,1,1.735.426h0l2.431,1.279A1,1,0,0,0,70.811,61L70.347,58.3A3.728,3.728,0,0,1,71.419,55l1.969-1.92a1,1,0,0,0-.554-1.705l-2.718-.395a3.736,3.736,0,0,1-2.811-2.042l-1.217-2.464a1,1,0,0,0-1.793,0l-1.218,2.467a3.728,3.728,0,0,1-2.806,2.039l-2.721.395A1,1,0,0,0,57,53.075l1.968,1.919a3.731,3.731,0,0,1,1.073,3.3l-.464,2.71a1,1,0,0,0,1.451,1.054l2.432-1.28A3.738,3.738,0,0,1,65.192,60.352Z"/><path d="M33.612,59.413a5.643,5.643,0,1,1,5.643-5.642A5.649,5.649,0,0,1,33.612,59.413Zm0-7.285a1.643,1.643,0,1,0,1.643,1.643A1.645,1.645,0,0,0,33.612,52.128Z"/><path d="M37.255,106.086a2,2,0,0,1-2-2V93.5a2,2,0,0,1,4,0v10.589A2,2,0,0,1,37.255,106.086Z"/></g></svg>