<svg xmlns="http://www.w3.org/2000/svg" viewBox="0 0 128 128"><title>43.1</title><g id="microphone"><path d="M63.548,27.5l-9.383-9.384a24.146,24.146,0,0,0-34.1-.007l-1.952,1.952a24.146,24.146,0,0,0,.007,34.1L27.5,63.548a6.869,6.869,0,0,0,1.329,7.51c2.485,2.484,5.473,2.885,7.941,1.732A15.975,15.975,0,0,0,52.121,76.3l.021.021,42.179,37.216a13.617,13.617,0,0,0,19.22-19.22L76.325,52.142l-.021-.021A15.975,15.975,0,0,0,72.79,36.77,7.109,7.109,0,0,0,71.3,29,7.01,7.01,0,0,0,63.548,27.5Zm-42.6,23.836a20.146,20.146,0,0,1-.007-28.447l1.951-1.951a20.146,20.146,0,0,1,28.447.007l9.094,9.093L30.038,60.43Zm89.6,45.63a9.618,9.618,0,0,1-13.576,13.576L56.109,74.48A15.776,15.776,0,0,0,58.825,72.3L72.3,58.825a15.776,15.776,0,0,0,2.178-2.716ZM69.474,56,56,69.474a11.982,11.982,0,0,1-16.094.749L70.223,39.9A11.982,11.982,0,0,1,69.474,56ZM68.229,31.658a3.25,3.25,0,0,1,0,4.582L36.24,68.229a3.25,3.25,0,0,1-4.582,0h0a2.657,2.657,0,0,1-.008-3.755L64.474,31.65a2.657,2.657,0,0,1,3.755.008Z"/><path d="M86.649,81.544a3.69,3.69,0,1,1-6.194,1.739L72.811,75.64a2,2,0,0,1,2.829-2.829l7.714,7.715A3.7,3.7,0,0,1,86.649,81.544Z"/></g></svg>