<?xml version="1.0" encoding="iso-8859-1"?>
<!-- Generator: Adobe Illustrator 19.0.0, SVG Export Plug-In . SVG Version: 6.00 Build 0)  -->
<svg version="1.1" id="Layer_1" xmlns="http://www.w3.org/2000/svg" xmlns:xlink="http://www.w3.org/1999/xlink" x="0px" y="0px"
	 viewBox="0 0 512 512" style="enable-background:new 0 0 512 512;" xml:space="preserve">
<path style="fill:#F24C8F;" d="M206.575,201.613l20.697,20.697l-21.185,21.185l-20.697-20.697c-5.844-5.855-5.844-15.341,0-21.185
	c2.928-2.928,6.763-4.391,10.598-4.391C199.823,197.222,203.647,198.685,206.575,201.613z"/>
<g>
	<path style="fill:#F7B239;" d="M274.453,269.48c5.844,5.855,5.844,15.341,0,21.185c-5.855,5.855-15.341,5.855-21.185,0
		l-47.182-47.17l21.185-21.185L274.453,269.48z"/>
	<path style="fill:#F7B239;" d="M352.965,292.163c21.265,21.265,21.265,55.749,0,77.013c-10.632,10.632-24.578,15.943-38.512,15.943
		c-13.946,0-27.88-5.31-38.512-15.943L352.965,292.163z"/>
</g>
<path style="fill:#2BA5F7;" d="M352.965,292.163l-77.025,77.013L107.355,200.592l-0.011-0.045
	c18.814-2.303,37.037-10.689,51.482-25.134c14.547-14.547,22.944-32.918,25.179-51.879l0.374,0.045L352.965,292.163z
	 M274.453,290.666c5.844-5.844,5.844-15.33,0-21.185l-47.182-47.17l-20.697-20.697c-2.928-2.928-6.752-4.391-10.587-4.391
	s-7.671,1.464-10.598,4.391c-5.844,5.844-5.844,15.33,0,21.185l20.697,20.697l47.182,47.17
	C259.112,296.521,268.598,296.521,274.453,290.666z"/>
<path style="fill:#666666;" d="M158.826,50.854c19.846,19.846,28.243,46.807,25.179,72.679
	c-2.235,18.961-10.632,37.332-25.179,51.879c-14.445,14.445-32.669,22.831-51.482,25.134c-25.985,3.2-53.128-5.174-73.076-25.134
	c-34.405-34.393-34.405-90.165,0-124.558C68.661,16.461,124.432,16.461,158.826,50.854z"/>
<path style="fill:#808080;" d="M73.479,48.119c20.718,7.35,42.61,23.585,59.872,42.912c12.654,14.16,22.817,29.979,28.205,45.164
	c5.349,15.079,5.141,27.146,0.433,35.112c-6.488,11.015-21.552,14.234-42.384,6.839c-35.907-12.733-75.343-52.169-88.076-88.076
	C18.792,54.166,37.576,35.382,73.479,48.119z"/>
<g>
	<path style="fill:#2BA5F7;" d="M311.891,89.348c-4.701,0-8.51-3.81-8.51-8.51V63.594c0-4.7,3.809-8.51,8.51-8.51
		s8.51,3.81,8.51,8.51v17.244C320.402,85.538,316.592,89.348,311.891,89.348z"/>
	<path style="fill:#2BA5F7;" d="M311.891,157.206c-4.701,0-8.51-3.81-8.51-8.51v-17.244c0-4.7,3.809-8.51,8.51-8.51
		s8.51,3.81,8.51,8.51v17.244C320.402,153.395,316.592,157.206,311.891,157.206z"/>
	<path style="fill:#2BA5F7;" d="M354.442,114.655h-17.244c-4.701,0-8.51-3.81-8.51-8.51s3.809-8.51,8.51-8.51h17.244
		c4.701,0,8.51,3.81,8.51,8.51S359.143,114.655,354.442,114.655z"/>
	<path style="fill:#2BA5F7;" d="M286.585,114.655H269.34c-4.701,0-8.51-3.81-8.51-8.51s3.809-8.51,8.51-8.51h17.244
		c4.701,0,8.51,3.81,8.51,8.51S291.286,114.655,286.585,114.655z"/>
</g>
<g>
	<path style="fill:#CC1B5B;" d="M66.102,266.24c-4.7,0-8.51-3.81-8.51-8.51v-7.446c0-4.7,3.81-8.51,8.51-8.51s8.51,3.81,8.51,8.51
		v7.446C74.612,262.429,70.802,266.24,66.102,266.24z"/>
	<path style="fill:#CC1B5B;" d="M66.102,304.321c-4.7,0-8.51-3.81-8.51-8.51v-7.446c0-4.7,3.81-8.51,8.51-8.51s8.51,3.81,8.51,8.51
		v7.446C74.612,300.51,70.802,304.321,66.102,304.321z"/>
	<path style="fill:#CC1B5B;" d="M88.867,281.557h-7.446c-4.7,0-8.51-3.81-8.51-8.51s3.81-8.51,8.51-8.51h7.446
		c4.7,0,8.51,3.81,8.51,8.51S93.567,281.557,88.867,281.557z"/>
	<path style="fill:#CC1B5B;" d="M50.784,281.557h-7.446c-4.7,0-8.51-3.81-8.51-8.51s3.81-8.51,8.51-8.51h7.446
		c4.7,0,8.51,3.81,8.51,8.51S55.484,281.557,50.784,281.557z"/>
</g>
<path d="M150.877,120.901c1.317,2.993,4.312,5.082,7.794,5.082c4.7,0,8.51-3.816,8.51-8.516c0-1.287-0.292-2.557-0.853-3.715
	c-5.84-12.038-14.075-23.869-23.779-34.587l5.221-5.221c3.324-3.324,3.324-8.712,0-12.035c-3.324-3.324-8.712-3.324-12.035,0
	l-5.221,5.221c-10.719-9.703-22.55-17.938-34.589-23.779c-1.159-0.562-2.428-0.853-3.715-0.853h-0.011c-4.7,0-8.505,3.81-8.505,8.51
	c0,3.438,2.043,6.401,4.979,7.743c10.365,5.053,20.554,12.095,29.832,20.387l-21.964,21.961l-31.99-31.989
	c-3.324-3.324-8.712-3.324-12.035,0c-3.324,3.324-3.324,8.712,0,12.035l31.99,31.99l-21.952,21.952
	c-8.344-9.336-15.421-19.598-20.476-30.035c-2.05-4.23-7.14-5.997-11.37-3.949c-4.23,2.049-5.998,7.14-3.949,11.37
	c5.839,12.053,14.076,23.896,23.785,34.624l-5.23,5.23c-3.324,3.324-3.324,8.712,0,12.035c1.661,1.661,3.84,2.493,6.017,2.493
	s4.356-0.831,6.017-2.493l5.23-5.23c10.728,9.71,22.571,17.946,34.624,23.785c1.156,0.561,2.425,0.851,3.711,0.851h0.011
	c4.7,0,8.505-3.81,8.505-8.51c0-3.44-2.045-6.404-4.984-7.746c-10.375-5.049-20.575-12.093-29.858-20.389l21.953-21.953
	l30.953,30.953c1.661,1.661,3.84,2.493,6.017,2.493s4.356-0.831,6.017-2.493c3.324-3.324,3.324-8.712,0-12.035l-30.952-30.953
	l21.964-21.964C138.806,100.419,145.828,110.572,150.877,120.901z"/>
<path d="M486.948,273.251l-78.273-78.285c-33.355-33.355-87.626-33.355-120.98,0l-9.946,9.946l-84.931-84.931
	c1.9-26.963-7.409-54.575-27.977-75.143c-37.66-37.659-98.937-37.659-136.596,0s-37.659,98.937,0,136.596
	c18.83,18.83,43.564,28.245,68.299,28.245c2.518,0,5.034-0.124,7.546-0.319l85.253,85.253
	c-25.109,33.674-22.116,81.203,8.189,111.508l86.783,86.795c1.662,1.662,3.84,2.493,6.019,2.493c2.178,0,4.356-0.831,6.017-2.492
	c3.325-3.324,3.325-8.712,0.001-12.036l-86.784-86.795c-23.67-23.67-26.533-60.449-8.021-87.27l68.378,68.378
	c12.277,12.277,28.402,18.414,44.527,18.414c13.442,0,26.875-4.28,38.087-12.811l13.431,13.432
	c16.156,16.156,37.639,25.055,60.491,25.055s44.333-8.897,60.491-25.055c16.154-16.154,25.05-37.639,25.05-60.495
	C511.999,310.874,503.102,289.393,486.948,273.251z M96.542,192.667c-20.373-0.001-40.753-7.757-56.263-23.267
	c-31.023-31.023-31.023-81.502,0-112.527c15.512-15.512,35.888-23.267,56.263-23.267c20.376,0,40.751,7.756,56.263,23.267
	c31.023,31.023,31.023,81.502,0,112.527C137.291,184.913,116.92,192.669,96.542,192.667z M124.396,205.598
	c14.813-4.436,28.765-12.484,40.445-24.164c11.831-11.831,19.94-25.994,24.337-41.022l151.746,151.746l-64.983,64.983
	L124.396,205.598z M288.544,368.611l63.847-63.847c12.219,17.881,10.409,42.538-5.45,58.397
	C331.082,379.019,306.424,380.829,288.544,368.611z M474.912,382.195c-12.94,12.941-30.148,20.069-48.454,20.069
	c-18.305,0-35.513-7.127-48.454-20.069l-13.424-13.423c8.323-10.904,12.842-24.154,12.842-38.104c0-16.82-6.55-32.633-18.444-44.527
	l-69.193-69.193l9.946-9.947c12.94-12.941,30.148-20.069,48.454-20.069s35.513,7.127,48.454,20.068l78.275,78.288
	c12.938,12.929,20.064,30.134,20.064,48.447C494.978,352.046,487.851,369.255,474.912,382.195z"/>
<path d="M280.467,296.685c4.437-4.437,6.88-10.335,6.88-16.61s-2.443-12.174-6.88-16.611l-67.872-67.872
	c-4.437-4.437-10.336-6.88-16.611-6.88s-12.174,2.443-16.611,6.88s-6.881,10.336-6.881,16.611s2.443,12.174,6.881,16.611
	l67.871,67.871c4.437,4.438,10.336,6.881,16.611,6.881S276.031,301.122,280.467,296.685z M189.513,212.203
	c0-1.728,0.673-3.353,1.895-4.575c1.262-1.262,2.919-1.892,4.575-1.892s3.313,0.631,4.575,1.892l14.68,14.68l-9.15,9.152
	l-14.68-14.68C190.187,215.556,189.513,213.931,189.513,212.203z M218.124,243.493l9.15-9.15l41.157,41.157
	c1.222,1.222,1.895,2.847,1.895,4.575c0,1.728-0.673,3.353-1.895,4.575c-0.001,0-0.001,0-0.001,0
	c-1.222,1.222-2.847,1.895-4.574,1.895c-1.728,0-3.353-0.673-4.575-1.895L218.124,243.493z"/>
<g>
</g>
<g>
</g>
<g>
</g>
<g>
</g>
<g>
</g>
<g>
</g>
<g>
</g>
<g>
</g>
<g>
</g>
<g>
</g>
<g>
</g>
<g>
</g>
<g>
</g>
<g>
</g>
<g>
</g>
</svg>
