<?xml version="1.0" encoding="iso-8859-1"?>
<!-- Generator: Adobe Illustrator 19.0.0, SVG Export Plug-In . SVG Version: 6.00 Build 0)  -->
<svg version="1.1" id="Layer_1" xmlns="http://www.w3.org/2000/svg" xmlns:xlink="http://www.w3.org/1999/xlink" x="0px" y="0px"
	 viewBox="0 0 511.999 511.999" style="enable-background:new 0 0 511.999 511.999;" xml:space="preserve">
<path style="fill:#CC1B5B;" d="M222.953,192.395c-8.701-16.92-12.854-28.921-13.015-29.416l262.988,144.113
	c0,0-90.052,22-161.577-17.192C266.447,265.291,237.945,221.538,222.953,192.395z"/>
<path style="fill:#F24C8F;" d="M472.926,307.092L209.939,162.979l-0.012-0.012c32.963,3.51,76.741-5.871,103.598-12.94
	c14.572-3.844,27.908,3.152,32.827,17.316c6.205,17.86,21.073,28.427,38.611,28.427c3.522,0,7.156-0.433,10.852-1.31
	c2.385-0.569,4.734-0.84,7.008-0.84c11.63,0,21.407,7.181,25.263,19.182C436.577,239.25,452.224,281.186,472.926,307.092z"/>
<g>
	<path style="fill:#995C0D;" d="M86.961,176.364c-17.514-0.655-34.236-3.597-47.881-8.021c12.36-4.314,20.739-12.149,27.5-22.062
		c16.414-24.015,23.36-60.204,54.506-87.852c19.503-17.316,37.425-20.084,51.317-17.81c7.515,1.236,14.263,4.635,19.627,9.517
		c4.61,4.178,8.194,9.443,10.382,15.375l0.408,1.187c0.865,2.608,1.471,5.339,1.767,8.157
		C213.14,155.093,145.582,178.576,86.961,176.364z"/>
	<path style="fill:#995C0D;" d="M394.294,44.561c-34.557,51.935-131.741,118.17-187.792,29.601
		c-1.508-2.385-2.731-4.882-3.683-7.465l-0.408-1.187c-1.187-3.609-1.854-7.366-1.965-11.111
		c-0.297-9.294,2.731-18.614,9.072-25.968c9.356-10.876,25.288-20.505,52.219-19.009c40.49,2.237,68.027,25.09,95.095,34.248
		C369.031,47.8,381.144,49.147,394.294,44.561z"/>
</g>
<g>
	<path style="fill:#B27214;" d="M73.983,146.701c-2.484-0.087-4.956-0.235-7.403-0.42c16.414-24.015,23.36-60.204,54.506-87.852
		c19.503-17.316,37.425-20.084,51.317-17.81c7.515,1.236,14.263,4.635,19.627,9.517C197.357,126.394,131.381,148.864,73.983,146.701
		z"/>
	<path style="fill:#B27214;" d="M356.832,43.672c-41.948,40.095-110.359,70.19-156.386,10.728
		c-0.297-9.294,2.731-18.614,9.072-25.968c9.356-10.876,25.288-20.505,52.219-19.009C302.228,11.66,329.765,34.513,356.832,43.672z"
		/>
</g>
<path d="M480.164,301.301c-20.267-25.364-35.802-68.111-43.257-91.336c-6.116-19.047-23.897-29.134-43.239-24.529
	c-17.516,4.171-32.65-4.124-38.561-21.131c-6.528-18.783-24.602-28.339-43.943-23.245c-23.588,6.213-67.98,16.122-100.261,12.688
	c-3.149-0.334-6.248,0.959-8.223,3.432c-1.976,2.472-2.553,5.782-1.531,8.778c0.418,1.225,4.019,11.567,11.294,26.333
	L145.13,315.125l-45.101-129.437c3.194-0.089,6.375-0.245,9.523-0.487c20.831-1.604,50.451-7.406,73.268-25.932
	c18.306-14.862,28.882-35.442,31.243-60.337c17.317,18.035,38.389,27.585,61.962,27.856c0.353,0.004,0.702,0.006,1.056,0.006
	c28.973,0,55.356-13.671,72.468-25.219c20.691-13.965,39.813-32.872,52.458-51.874c2.205-3.315,2.048-7.668-0.391-10.815
	c-2.441-3.147-6.616-4.384-10.377-3.074c-19.105,6.656-36.167-1.927-57.765-12.795c-19.795-9.961-42.23-21.249-71.226-22.854
	c-32.051-1.771-50.182,11.1-59.752,22.213c-4.309,5.003-7.395,10.792-9.241,16.931c-5.678-3.929-12.241-6.669-19.348-7.835
	c-14.022-2.299-35.636-0.692-58.974,20.021C93.212,70.772,82.65,93.56,73.33,113.664c-10.168,21.937-18.2,39.264-37.305,45.921
	c-3.76,1.31-6.263,4.875-6.219,8.857c0.044,3.981,2.626,7.49,6.415,8.716c13.32,4.311,28.525,7.075,44.035,8.129l52.872,151.738
	L46.477,495.149c-2.461,4.49-0.816,10.124,3.675,12.583c1.414,0.775,2.94,1.142,4.447,1.142c3.277,0,6.452-1.74,8.138-4.817
	l78.611-143.452l50.584,145.171c1.334,3.825,4.919,6.222,8.753,6.222c1.012,0,2.041-0.167,3.05-0.519
	c4.835-1.685,7.389-6.97,5.704-11.803l-56.09-160.971l69.573-126.959c16.861,28.782,44.127,64.438,83.98,86.277
	c35.462,19.433,74.783,24.581,106.503,24.581c34.316,0,59.735-6.028,61.721-6.512c3.074-0.751,5.552-3.018,6.573-6.014
	C482.719,307.082,482.14,303.773,480.164,301.301z M216.544,34.475c9.966-11.574,24.996-16.887,44.679-15.799
	c25.139,1.392,44.854,11.312,63.919,20.905c16.097,8.099,31.58,15.891,48.269,17.018c-29.89,34.058-70.362,51.993-97.171,51.652
	c-24.856-0.286-45.681-13.424-61.897-39.049l0,0C207.432,58.284,208.338,44.003,216.544,34.475z M90.151,121.462
	c8.976-19.364,18.256-39.386,37.087-56.1c14.358-12.744,29.05-17.989,43.669-15.593c12.994,2.131,23.053,12.85,24.462,26.07l0,0
	c3.214,30.144-4.941,53.372-24.236,69.038c-20.842,16.923-63.646,28.022-108.222,19.913
	C75.283,153.536,82.573,137.808,90.151,121.462z M315.885,158.987c9.878-2.6,18.398,1.875,21.71,11.403
	c8.967,25.806,33.786,39.409,60.367,33.082c9.811-2.335,18.171,2.436,21.294,12.161c6.308,19.652,15.336,44.17,26.757,66.139
	L245.725,172.014C270.384,169.816,295.926,164.244,315.885,158.987z M315.808,281.766c-44.731-24.513-72.728-69.745-86.589-97.656
	l215.534,118.112C413.805,305.578,360.65,306.338,315.808,281.766z"/>
<g>
</g>
<g>
</g>
<g>
</g>
<g>
</g>
<g>
</g>
<g>
</g>
<g>
</g>
<g>
</g>
<g>
</g>
<g>
</g>
<g>
</g>
<g>
</g>
<g>
</g>
<g>
</g>
<g>
</g>
</svg>
