<?xml version="1.0" encoding="iso-8859-1"?>
<!-- Generator: Adobe Illustrator 19.0.0, SVG Export Plug-In . SVG Version: 6.00 Build 0)  -->
<svg version="1.1" id="Layer_1" xmlns="http://www.w3.org/2000/svg" xmlns:xlink="http://www.w3.org/1999/xlink" x="0px" y="0px"
	 viewBox="0 0 512 512" style="enable-background:new 0 0 512 512;" xml:space="preserve">
<polygon style="fill:#F7B239;" points="285.4,213.851 299.163,247.165 255.992,286.654 212.832,247.165 226.595,213.851 
	255.992,142.694 "/>
<polygon style="fill:#E09B2D;" points="255.992,286.654 212.832,247.165 226.595,213.851 255.992,142.694 "/>
<path style="fill:#F24C8F;" d="M503.175,138.577c0,19.727-7.917,38.09-21.55,53.453v0.012c-23.715,26.75-64.71,44.43-111.305,44.43
	c-32.29,0-61.899-8.493-84.92-22.621l-29.408-71.157l-29.397,71.157c-23.021,14.128-52.629,22.621-84.92,22.621
	c-73.38,0-132.855-43.83-132.855-97.895s59.476-97.895,132.855-97.895c48.641,0,91.178,19.268,114.316,48.018
	c23.15-28.75,65.687-48.018,114.328-48.018C443.688,40.682,503.175,84.513,503.175,138.577z M434.948,138.577
	c0-2.917-3.494-8.646-11.163-14.292c-13.257-9.764-32.737-15.375-53.464-15.375c-20.715,0-40.207,5.611-53.464,15.375
	c-7.67,5.646-11.163,11.375-11.163,14.292c0,2.929,3.494,8.646,11.163,14.292c13.257,9.775,32.749,15.375,53.464,15.375
	c20.727,0,40.207-5.599,53.464-15.375C431.454,147.223,434.948,141.506,434.948,138.577z M206.292,138.577
	c0-2.917-3.482-8.646-11.152-14.292c-13.257-9.764-32.749-15.375-53.464-15.375c-20.727,0-40.219,5.611-53.476,15.375
	c-7.658,5.646-11.152,11.375-11.152,14.292c0,2.929,3.494,8.646,11.152,14.292c13.257,9.775,32.749,15.375,53.476,15.375
	c20.715,0,40.207-5.599,53.464-15.375C202.81,147.223,206.292,141.506,206.292,138.577z"/>
<path d="M200.375,117.183c-14.741-10.861-36.137-17.091-58.701-17.091c-22.566,0-43.961,6.229-58.701,17.091
	c-9.233,6.804-14.745,14.802-14.745,21.395c0,6.593,5.512,14.591,14.745,21.395c14.741,10.861,36.137,17.091,58.701,17.091
	c22.566,0,43.961-6.229,58.701-17.091c9.233-6.804,14.745-14.802,14.745-21.395C215.12,131.984,209.608,123.987,200.375,117.183z
	 M189.908,145.768c-11.774,8.675-29.355,13.651-48.234,13.651s-36.461-4.976-48.233-13.651c-4.16-3.064-6.302-5.735-7.193-7.19
	c0.892-1.454,3.034-4.125,7.192-7.19c11.774-8.675,29.354-13.651,48.234-13.651s36.461,4.976,48.236,13.651
	c4.158,3.063,6.3,5.735,7.192,7.19C196.208,140.032,194.066,142.704,189.908,145.768z"/>
<path d="M429.024,117.183c-14.741-10.861-36.137-17.091-58.701-17.091c-22.564,0-43.961,6.229-58.702,17.091
	c-9.233,6.804-14.745,14.802-14.745,21.395s5.512,14.591,14.745,21.395c14.741,10.861,36.137,17.091,58.702,17.091
	c22.564,0,43.961-6.229,58.701-17.091c9.233-6.804,14.745-14.802,14.745-21.395S438.257,123.987,429.024,117.183z M418.557,145.768
	c-11.774,8.675-29.354,13.651-48.234,13.651c-18.88,0-36.461-4.976-48.234-13.651c-4.158-3.063-6.3-5.735-7.192-7.19
	c0.89-1.454,3.034-4.125,7.192-7.19c11.774-8.675,29.354-13.651,48.234-13.651c18.88,0,36.461,4.976,48.234,13.651
	c4.158,3.063,6.3,5.735,7.192,7.19C424.858,140.032,422.715,142.704,418.557,145.768z"/>
<path d="M512,138.578c0-29.023-15.095-56.128-42.503-76.324c-26.599-19.599-61.82-30.393-99.174-30.393
	c-45.848,0-87.736,16.112-114.326,43.54c-26.58-27.427-68.464-43.54-114.317-43.54c-37.359,0-72.581,10.794-99.179,30.393
	C15.094,82.449,0,109.554,0,138.578s15.094,56.129,42.499,76.324c26.598,19.6,61.82,30.393,99.179,30.393
	c23.754,0,47.082-4.512,67.719-12.93l-4.722,11.428c-1.416,3.428-0.538,7.377,2.2,9.879l43.169,39.485
	c1.686,1.542,3.821,2.313,5.955,2.313s4.269-0.771,5.955-2.313l43.169-39.485c2.737-2.503,3.616-6.451,2.2-9.879l-4.731-11.45
	c20.644,8.424,43.97,12.953,67.733,12.953c37.355,0,72.575-10.794,99.174-30.393c1.127-0.83,2.226-1.677,3.311-2.53v258.944
	c0,4.872,3.95,8.823,8.823,8.823s8.823-3.95,8.823-8.823V195.355C504.487,178.548,512,159.042,512,138.578z M255.998,274.692
	l-32.656-29.869l32.656-79.029l32.656,79.029L255.998,274.692z M370.322,227.65c-28.349,0-55.876-7.065-77.897-19.906
	l-28.273-68.423c-1.365-3.301-4.583-5.453-8.154-5.453s-6.79,2.153-8.154,5.453l-28.274,68.427
	c-22.021,12.839-49.545,19.901-77.891,19.901c-68.392,0-124.033-39.958-124.033-89.072s55.641-89.072,124.033-89.072
	c44.069,0,85.238,17.138,107.443,44.727c1.674,2.081,4.201,3.29,6.872,3.29c0,0,0,0,0.001,0c2.67,0,5.197-1.209,6.871-3.289
	c22.216-27.59,63.392-44.729,107.457-44.729c68.392,0,124.033,39.958,124.033,89.072C494.355,187.693,438.714,227.65,370.322,227.65
	z"/>
<g>
</g>
<g>
</g>
<g>
</g>
<g>
</g>
<g>
</g>
<g>
</g>
<g>
</g>
<g>
</g>
<g>
</g>
<g>
</g>
<g>
</g>
<g>
</g>
<g>
</g>
<g>
</g>
<g>
</g>
</svg>
