<?xml version="1.0" encoding="UTF-8"?>
<!DOCTYPE svg PUBLIC "-//W3C//DTD SVG 1.1//EN" "http://www.w3.org/Graphics/SVG/1.1/DTD/svg11.dtd">
<!-- Creator: CorelDRAW -->
<svg xmlns="http://www.w3.org/2000/svg" xml:space="preserve" width="2048px" height="2048px" style="shape-rendering:geometricPrecision; text-rendering:geometricPrecision; image-rendering:optimizeQuality; fill-rule:evenodd; clip-rule:evenodd"
viewBox="0 0 2048 2048"
 xmlns:xlink="http://www.w3.org/1999/xlink">
 <defs>
  <style type="text/css">
   <![CDATA[
    .fil2 {fill:none}
    .fil1 {fill:#424242}
    .fil0 {fill:#424242;fill-rule:nonzero}
   ]]>
  </style>
 </defs>
 <g id="Layer_x0020_1">
  <metadata id="CorelCorpID_0Corel-Layer"/>
  <g id="_333743376">
   <path id="_333742992" class="fil0" d="M1403.9 774.455l-54.1548 150.155 -701.057 -82.6831 -23.3055 -64.6205c-1.98189,-4.21418 -3.09213,-8.91851 -3.09213,-13.8827 0,-18.0343 14.6209,-32.654 32.654,-32.654l717.745 0c3.87756,-0.0755906 7.83426,0.542126 11.6988,1.93701 16.9642,6.11693 25.7563,24.8303 19.6394,41.7945l-0.127559 -0.046063zm-77.0528 213.644l-47.6327 132.075 -553.728 -65.3079 -51.8658 -143.81 653.227 77.0434zm-70.5308 195.564l-39.6095 109.825 -423.16 -49.9087 -43.1292 -119.584 505.898 59.6682zm-62.5052 173.314l-39.9189 110.682 -299.888 -56.452 -35.524 -98.4981 375.331 44.2678zm-62.8489 174.259l-85.2343 236.333c-2.62914,10.0583 -10.0051,18.6933 -20.5229,22.4858 -16.9642,6.11811 -35.6776,-2.67402 -41.7945,-19.6382l30.717 -11.0787 -30.6118 10.9701 -103.243 -286.263 250.689 47.191z"/>
   <polygon id="_333743064" class="fil1" points="1009.74,306.281 1027.25,348.32 1073.49,352.602 1038.92,382.242 1049.14,427.549 1010.27,403.829 970.338,427.549 980.884,383.249 945.986,352.602 991.377,348.943 "/>
   <polygon id="_333743088" class="fil1" points="734.343,530.641 753.139,575.776 802.791,580.372 765.674,612.195 776.646,660.838 734.911,635.372 692.039,660.838 703.362,613.276 665.894,580.372 714.628,576.443 "/>
   <path id="_333742824" class="fil0" d="M699.232 400.166c1.6252,8.59371 2.07992,16.8106 1.47874,24.4937 -1.32047,16.8638 -7.39843,31.7835 -17.1898,43.4481 -10.2815,12.2457 -24.3248,20.6445 -41.0292,23.8051 -6.70394,1.2685 -13.6429,1.6748 -20.7166,1.12205 -49.376,-3.86575 -80.9493,-39.5103 -92.5548,-82.2757 -4.05355,-14.9421 -5.59371,-30.8823 -4.5,-46.5697 1.10906,-15.8847 4.99016,-31.6855 11.7721,-46.1433 17.9575,-38.2855 54.3709,-66.0119 110.969,-61.5815 78.3969,6.13583 139.921,67.9465 186.636,149.434 65.7331,114.663 103.519,271.108 115.192,352.934l-64.5414 9.18308c-10.9488,-76.7552 -46.2107,-223.185 -107.283,-329.719 -36.8044,-64.2012 -82.1268,-112.654 -134.85,-116.78 -24.7524,-1.93701 -40.0961,8.94922 -47.1933,24.0815 -3.21024,6.84567 -5.07638,14.713 -5.64804,22.9276 -0.587008,8.413 0.255118,17.0197 2.45788,25.1421 4.89095,18.0248 16.7599,32.9351 34.3914,34.3158 1.60276,0.125197 2.8937,0.0850394 3.87992,-0.100394 1.32165,-0.249213 2.35276,-0.818505 3.0189,-1.61221 1.15866,-1.38071 1.91339,-3.58701 2.13662,-6.45827 0.188977,-2.41418 0.0484252,-4.98544 -0.455906,-7.65709l64.03 -11.9894z"/>
   <path id="_333743280" class="fil0" d="M1412.8 412.155c-0.504331,2.67166 -0.644882,5.24292 -0.455906,7.65709 0.223229,2.87126 0.977954,5.07756 2.13662,6.45827 0.666142,0.793701 1.69725,1.36299 3.0189,1.61221 0.986221,0.185433 2.27717,0.225591 3.87992,0.100394 17.6315,-1.38071 29.5004,-16.291 34.3914,-34.3158 2.20276,-8.12245 3.04488,-16.7291 2.45788,-25.1421 -0.571654,-8.21457 -2.4378,-16.0819 -5.64804,-22.9276 -7.09725,-15.1323 -22.441,-26.0185 -47.1933,-24.0815 -52.7233,4.12677 -98.0457,52.5792 -134.85,116.78 -61.0725,106.534 -96.3343,252.964 -107.283,329.719l-64.5414 -9.18308c11.6728,-81.8257 49.4587,-238.271 115.192,-352.934 46.715,-81.4879 108.239,-143.299 186.636,-149.434 56.5985,-4.43032 93.0119,23.2961 110.969,61.5815 6.78189,14.4579 10.663,30.2587 11.7721,46.1433 1.0937,15.6874 -0.446457,31.6276 -4.5,46.5697 -11.6055,42.7654 -43.1788,78.4099 -92.5548,82.2757 -7.07363,0.552756 -14.0126,0.146457 -20.7166,-1.12205 -16.7043,-3.16063 -30.7477,-11.5595 -41.0292,-23.8051 -9.79135,-11.6646 -15.8693,-26.5843 -17.1898,-43.4481 -0.601182,-7.68308 -0.146457,-15.9 1.47874,-24.4937l64.03 11.9894z"/>
   <polygon id="_333742872" class="fil1" points="1340.65,560.841 1359.45,605.976 1409.1,610.573 1371.99,642.395 1382.96,691.039 1341.22,665.572 1298.35,691.039 1309.67,643.476 1272.21,610.573 1320.94,606.644 "/>
   <polygon id="_333742752" class="fil1" points="1045.23,534.853 1062.73,576.892 1108.98,581.174 1074.41,610.813 1084.63,656.121 1045.75,632.4 1005.82,656.121 1016.37,611.82 981.472,581.174 1026.86,577.515 "/>
  </g>
 </g>
 <rect class="fil2" width="2048" height="2048"/>
</svg>
