<svg id="Layer_1" data-name="Layer 1" xmlns="http://www.w3.org/2000/svg" viewBox="0 0 128 128"><title>PARTY BLOWER</title><path d="M54.3,77.112a25.225,25.225,0,1,0-19.574,9.317H79.552V77.112Z" style="fill:#ec4d85"/><path d="M54.3,77.112h-6.25A25.22,25.22,0,0,0,31.6,36.173a25.225,25.225,0,0,0,3.125,50.256H74.833V77.112Z" style="fill:#fd748c"/><path d="M93.072,49.416a2.445,2.445,0,1,1,2.445-2.445A2.448,2.448,0,0,1,93.072,49.416Z" style="fill:#fd852b"/><path d="M93.072,58.858a2.445,2.445,0,1,1,2.445-2.445A2.447,2.447,0,0,1,93.072,58.858Z" style="fill:#fd852b"/><path d="M88.351,54.137A2.445,2.445,0,1,1,90.8,51.692,2.447,2.447,0,0,1,88.351,54.137Z" style="fill:#fd852b"/><path d="M97.793,54.137a2.445,2.445,0,1,1,2.445-2.445A2.448,2.448,0,0,1,97.793,54.137Z" style="fill:#fd852b"/><path d="M15.286,16.353a2.445,2.445,0,1,1,2.445-2.445A2.447,2.447,0,0,1,15.286,16.353Z" style="fill:#fd852b"/><path d="M15.286,25.8a2.445,2.445,0,1,1,2.445-2.445A2.448,2.448,0,0,1,15.286,25.8Z" style="fill:#fd852b"/><path d="M10.564,21.074a2.445,2.445,0,1,1,2.445-2.445A2.448,2.448,0,0,1,10.564,21.074Z" style="fill:#fd852b"/><path d="M20.007,21.074a2.445,2.445,0,1,1,2.445-2.445A2.448,2.448,0,0,1,20.007,21.074Z" style="fill:#fd852b"/><rect x="110.961" y="21.076" width="5.939" height="5.939" transform="translate(16.367 87.604) rotate(-45)" style="fill:#fd748c"/><rect x="38.468" y="107.617" width="5.939" height="5.939" transform="translate(-66.061 61.693) rotate(-45.001)" style="fill:#2ec3fc"/><circle cx="34.728" cy="61.201" r="15.91" style="fill:#ec4d85"/><circle cx="34.728" cy="61.201" r="6.744" style="fill:#fd748c"/><polygon points="118.5 77.112 90.25 77.112 90.25 86.429 118.5 81.429 118.5 77.112" style="fill:#2ec3fc"/><rect x="79.552" y="73.249" width="10.698" height="17.043" style="fill:#f9d12f"/><rect x="84.901" y="73.249" width="5.349" height="17.043" style="fill:#f8b62b"/><polygon points="118.5 81.429 90.25 81.77 90.25 86.429 118.5 81.429" style="fill:#1ba4fc"/></svg>