<?xml version="1.0" encoding="iso-8859-1"?>
<!-- Generator: Adobe Illustrator 19.0.0, SVG Export Plug-In . SVG Version: 6.00 Build 0)  -->
<svg version="1.1" id="Layer_1" xmlns="http://www.w3.org/2000/svg" xmlns:xlink="http://www.w3.org/1999/xlink" x="0px" y="0px"
	 viewBox="0 0 512 512" style="enable-background:new 0 0 512 512;" xml:space="preserve">
<g>
	<path style="fill:#2BA5F7;" d="M436.131,139.332c-4.996,0-9.047-4.051-9.047-9.047v-7.915c0-4.996,4.051-9.047,9.047-9.047
		c4.996,0,9.047,4.051,9.047,9.047v7.915C445.178,135.282,441.127,139.332,436.131,139.332z"/>
	<path style="fill:#2BA5F7;" d="M436.131,179.815c-4.996,0-9.047-4.051-9.047-9.047v-7.915c0-4.996,4.051-9.047,9.047-9.047
		c4.996,0,9.047,4.051,9.047,9.047v7.915C445.178,175.765,441.127,179.815,436.131,179.815z"/>
	<path style="fill:#2BA5F7;" d="M460.33,155.617h-7.915c-4.996,0-9.047-4.051-9.047-9.047c0-4.996,4.051-9.047,9.047-9.047h7.915
		c4.996,0,9.047,4.051,9.047,9.047C469.377,151.566,465.326,155.617,460.33,155.617z"/>
	<path style="fill:#2BA5F7;" d="M419.848,155.617h-7.915c-4.996,0-9.047-4.051-9.047-9.047c0-4.996,4.051-9.047,9.047-9.047h7.915
		c4.996,0,9.047,4.051,9.047,9.047C428.895,151.566,424.844,155.617,419.848,155.617z"/>
</g>
<path style="fill:#F7B239;" d="M229.923,175.49c-4.996,0-9.047-4.051-9.047-9.047s4.051-9.047,9.047-9.047
	c4.291,0,7.782-3.491,7.782-7.783c0-4.996,4.051-9.047,9.047-9.047s9.047,4.051,9.047,9.047
	C255.799,163.882,244.191,175.49,229.923,175.49z"/>
<path style="fill:#CC1B5B;" d="M447.034,275.181c-4.996,0-9.047-4.051-9.047-9.047c0-4.996,4.051-9.047,9.047-9.047
	c4.291,0,7.782-3.491,7.782-7.783c0-4.996,4.051-9.047,9.047-9.047c4.996,0,9.047,4.051,9.047,9.047
	C472.911,263.573,461.302,275.181,447.034,275.181z"/>
<g>
	<path style="fill:#2BA5F7;" d="M397.111,332.763c-3.334,0-6.542-1.85-8.118-5.042c-1.901-3.847-6.578-5.431-10.424-3.531
		c-4.48,2.213-9.905,0.375-12.118-4.105c-2.212-4.48-0.375-9.906,4.105-12.118c12.792-6.317,28.342-1.052,34.661,11.739
		c2.212,4.48,0.376,9.905-4.104,12.118C399.822,332.461,398.456,332.763,397.111,332.763z"/>
	<path style="fill:#2BA5F7;" d="M493.492,103.891c-1.595,0-3.2-0.148-4.801-0.446c-6.795-1.268-12.69-5.105-16.597-10.807
		c-2.825-4.122-1.774-9.751,2.347-12.576c4.122-2.825,9.751-1.774,12.576,2.347c1.176,1.714,2.948,2.868,4.991,3.25
		c2.045,0.381,4.112-0.055,5.827-1.232c4.122-2.826,9.751-1.774,12.578,2.346c2.825,4.122,1.774,9.753-2.346,12.578
		C503.71,102.337,498.663,103.891,493.492,103.891z"/>
</g>
<path style="fill:#F7B239;" d="M395.07,48.649c-0.392,0-0.788-0.025-1.186-0.077c-4.954-0.649-8.444-5.192-7.795-10.146
	c0.27-2.061-0.279-4.105-1.545-5.753c-1.267-1.649-3.099-2.706-5.159-2.975c-4.954-0.649-8.444-5.192-7.795-10.146
	c0.649-4.953,5.194-8.447,10.146-7.795c6.854,0.899,12.947,4.411,17.158,9.893c4.211,5.481,6.035,12.274,5.137,19.126
	C403.432,45.332,399.543,48.649,395.07,48.649z"/>
<path style="fill:#CC1B5B;" d="M130.01,422.496c27.708,27.708,42.979,57.382,34.101,66.272c-8.89,8.878-38.552-6.393-66.272-34.101
	c-27.72-27.72-42.991-57.394-34.101-66.272C72.616,379.505,102.29,394.777,130.01,422.496z"/>
<path style="fill:#F24C8F;" d="M268.054,284.44c27.72,27.72,42.991,57.394,34.101,66.272L164.111,488.768
	c8.878-8.89-6.393-38.564-34.101-66.272c-27.72-27.72-57.394-42.991-66.272-34.101l138.044-138.056
	C210.673,241.461,240.347,256.72,268.054,284.44z"/>
<path style="fill:#2BA5F7;" d="M252.777,229.799c-2.137,0-4.283-0.753-6.007-2.285c-3.733-3.318-4.071-9.037-0.753-12.772
	c0.821-0.925,82.156-93.287,82.153-162.865c0-4.996,4.049-9.047,9.047-9.047s9.047,4.049,9.047,9.047
	c0.001,32.407-14.683,71.782-43.645,117.031c-21.251,33.2-42.197,56.867-43.079,57.857
	C257.754,228.775,255.272,229.799,252.777,229.799z"/>
<path style="fill:#F7B239;" d="M337.214,302.175c-2.261,0-4.522-0.841-6.277-2.533c-3.597-3.467-3.703-9.193-0.238-12.791
	c4-4.152,98.712-101.68,163.331-101.683c4.996,0,9.047,4.049,9.047,9.047c0,4.998-4.049,9.047-9.047,9.047
	c-23.073,0.001-56.175,16.391-95.727,47.399c-30.692,24.061-54.341,48.501-54.576,48.746
	C341.953,301.248,339.586,302.175,337.214,302.175z"/>
<path style="fill:#CC1B5B;" d="M303.44,237.038c-2.185,0-4.374-0.785-6.111-2.378c-3.683-3.376-3.932-9.099-0.556-12.783
	c1.414-1.543,141.624-154.767,162.496-200.308c2.082-4.543,7.452-6.537,11.994-4.455c4.542,2.082,6.537,7.451,4.455,11.994
	c-22.049,48.109-159.754,198.612-165.606,204.995C308.328,236.05,305.888,237.038,303.44,237.038z"/>
<g>
	<path style="fill:#FFFFFF;" d="M295.762,357.11c-69.272-69.272-126.833-63.356-127.409-63.285l-2.128-17.968
		c2.697-0.321,66.918-6.953,142.33,68.46L295.762,357.11z"/>
	<path style="fill:#FFFFFF;" d="M256.205,396.845c-19.865-19.865-51.592-46.012-89.924-57.76
		c-22.813-6.991-37.388-5.534-37.532-5.52l-2.08-17.973c2.698-0.322,66.921-6.95,142.33,68.459L256.205,396.845z"/>
	<path style="fill:#FFFFFF;" d="M211.524,441.863c-19.865-19.865-51.592-46.012-89.924-57.76
		c-22.813-6.993-37.387-5.535-37.532-5.52l-2.08-17.973c2.698-0.322,66.921-6.95,142.33,68.459L211.524,441.863z"/>
</g>
<path d="M306.878,320.503c-6.859-13.328-18.374-28.407-32.425-42.458c-28.15-28.163-63.513-49.63-79.068-34.102L57.34,381.999l0,0
	c-5.171,5.168-9.076,15.714,1.674,36.606c4.753,9.235,11.743,19.31,20.262,29.302c-19.301,4.528-40.448-0.707-55.469-15.726
	l-8.364-8.364c-3.533-3.533-9.262-3.533-12.794,0c-3.533,3.533-3.533,9.262,0,12.794l8.364,8.364
	c15.07,15.07,34.857,22.602,54.652,22.602c9.273,0,18.54-1.677,27.328-4.984c13.607,13.351,28.066,24.284,40.902,30.889
	c9.739,5.012,17.23,6.84,22.977,6.84c6.579,0,10.871-2.396,13.631-5.152c0.001-0.001,0.002-0.002,0.005-0.005l0,0l138.041-138.05
	C313.722,351.947,317.632,341.401,306.878,320.503z M157.587,482.245c-4.727,0.896-23.515-6.011-47.715-28.541
	c3.669-2.561,7.175-5.456,10.447-8.727c3.533-3.533,3.533-9.26,0-12.794c-3.532-3.534-9.26-3.533-12.794,0
	c-3.271,3.27-6.839,6.061-10.61,8.405c-21.049-23.216-27.528-41.089-26.657-45.67c5.083-0.959,26.458,7.082,53.354,33.978
	C150.494,455.775,158.544,477.152,157.587,482.245z M295.552,344.52l-122.81,122.821c-1.002-2.707-2.289-5.628-3.918-8.792
	c-6.859-13.328-18.371-28.404-32.418-42.449c-14.052-14.052-29.131-25.568-42.459-32.427c-3.159-1.626-6.078-2.912-8.782-3.913
	l122.801-122.813c4.405-1.425,26.165,6.353,53.689,33.89C289.18,318.359,296.966,340.113,295.552,344.52z"/>
<g>
	<circle style="fill:#F7B239;" cx="387.885" cy="201.446" r="9.047"/>
	<circle style="fill:#F7B239;" cx="370.998" cy="103.232" r="9.047"/>
</g>
<circle style="fill:#CC1B5B;" cx="291.385" cy="55.887" r="9.047"/>
<g>
</g>
<g>
</g>
<g>
</g>
<g>
</g>
<g>
</g>
<g>
</g>
<g>
</g>
<g>
</g>
<g>
</g>
<g>
</g>
<g>
</g>
<g>
</g>
<g>
</g>
<g>
</g>
<g>
</g>
</svg>
